# xmcd CD database file
#
# Track frame offsets:
#	150
#	18333
#	40081
#	59053
#	80353
#	97227
#	118301
#	138376
#	161549
#	180116
#	223915
#	239063
#	258486
#	279484
#	297782
#	316823
#
# Disc length: 4470 seconds
#
# Revision: 3
# Processed by: cddbd v1.4PL0 Copyright (c) Steve Scherf et al.
# Submitted via: CDex 1.40Release
#
DISCID=ee117410
DTITLE=Celine Dion - The Collector's Series Volume One
DYEAR=1900
DGENRE=Blues
TTITLE0=The Power Of The Dream
TTITLE1=Where Does My Heart Beat Now
TTITLE2=Us
TTITLE3=The Reason
TTITLE4=Seduces Me
TTITLE5=With This Tear
TTITLE6=Falling Into You
TTITLE7=Pour Que Tu M'aimes Encore
TTITLE8=Un Garcon Pas Comme Les Autres (Ziggy)
TTITLE9=Be The Man (On This Night)
TTITLE10=Tell Him (Duet With Barbra Streisand)
TTITLE11=The Prayer (Duet With Andrea Bocelli)
TTITLE12=All By Myself (Spanish Version)
TTITLE13=Amar Haciendo El Amor
TTITLE14=Only One Road
TTITLE15=That's The Way It Is
EXTD=ID3G: 0
EXTT0=
EXTT1=
EXTT2=
EXTT3=
EXTT4=
EXTT5=
EXTT6=
EXTT7=
EXTT8=
EXTT9=
EXTT10=
EXTT11=
EXTT12=
EXTT13=
EXTT14=
EXTT15=
PLAYORDER=
